<?xml version="1.0" standalone="no"?>
<!DOCTYPE svg PUBLIC "-//W3C//DTD SVG 20010904//EN"
 "http://www.w3.org/TR/2001/REC-SVG-20010904/DTD/svg10.dtd">
<svg version="1.0" xmlns="http://www.w3.org/2000/svg"
 width="333.000000pt" height="333.000000pt" viewBox="0 0 333.000000 333.000000"
 preserveAspectRatio="xMidYMid meet">
<metadata>
Created by potrace 1.14, written by Peter Selinger 2001-2017
</metadata>
<g transform="translate(0.000000,333.000000) scale(0.100000,-0.100000)"
fill="#000000" stroke="none">
<path d="M2274 2549 c-8 -17 -60 -77 -115 -133 -55 -56 -106 -112 -115 -124
-20 -30 -35 -82 -23 -82 5 0 9 4 9 8 0 11 68 81 151 157 75 69 107 116 113
168 6 45 1 46 -20 6z"/>
<path d="M2326 2470 c-16 -27 -72 -88 -123 -136 -114 -106 -159 -166 -167
-219 l-6 -40 21 35 c22 37 63 78 171 173 78 67 124 132 133 188 4 22 5 42 3
44 -1 2 -16 -19 -32 -45z"/>
<path d="M2376 2393 c-31 -60 -51 -82 -151 -168 -139 -120 -185 -180 -185
-240 0 -27 0 -27 26 11 30 44 66 80 176 169 85 69 116 103 142 152 17 34 33
123 23 123 -4 0 -18 -21 -31 -47z"/>
<path d="M1353 1817 c-136 -111 -262 -213 -279 -227 -169 -136 -230 -186 -234
-191 -3 -3 -44 -37 -91 -75 -47 -38 -109 -89 -139 -114 -29 -25 -85 -72 -124
-105 -39 -32 -84 -73 -100 -89 l-29 -29 49 -13 c27 -7 69 -15 94 -19 25 -4 56
-9 70 -12 90 -16 315 -4 420 22 14 3 36 8 50 11 30 6 201 55 325 94 230 72
375 111 475 126 19 3 42 7 50 11 12 4 167 10 359 13 13 0 22 2 19 5 -11 11
-149 18 -325 18 l-183 -1 0 49 0 49 -65 0 -65 0 0 -64 c0 -63 -12 -92 -24 -60
-3 9 -6 40 -6 70 l0 54 -70 0 -71 0 3 -67 3 -68 45 -6 45 -5 -30 -13 c-67 -29
-476 -161 -555 -180 -110 -25 -170 -32 -308 -36 -114 -4 -146 0 -136 16 6 10
195 168 304 255 41 32 77 61 80 64 3 3 27 24 55 45 27 22 59 47 70 57 11 9 40
33 65 53 25 20 53 43 62 50 10 8 115 94 234 190 l216 175 51 -41 c169 -133
817 -662 828 -675 11 -13 9 -14 -12 -10 -62 14 -94 17 -229 20 -80 2 -185 -1
-235 -6 -108 -11 -312 -55 -479 -104 -249 -73 -445 -124 -561 -145 -194 -35
-420 -29 -627 17 -56 13 -185 51 -198 59 -5 3 -10 3 -10 0 0 -17 283 -128 360
-142 14 -2 41 -8 60 -13 77 -19 228 -32 311 -26 169 12 293 38 589 126 438
130 549 149 825 145 203 -4 236 -7 390 -41 151 -33 393 -114 506 -168 31 -15
32 -15 14 -1 -24 20 -182 100 -285 145 -41 18 -103 52 -138 76 -56 39 -315
249 -632 513 -269 224 -515 421 -527 421 -6 0 -124 -91 -260 -203z"/>
<path d="M1983 1903 c-8 -3 -13 -25 -13 -61 0 -54 2 -57 49 -103 27 -26 59
-52 70 -59 21 -11 21 -9 21 110 l0 120 -57 -1 c-32 0 -64 -3 -70 -6z"/>
<path d="M1565 1498 c-41 -14 -75 -46 -91 -85 -8 -18 -14 -35 -14 -38 0 -3 68
-5 150 -5 96 0 150 4 150 10 0 27 -31 79 -57 98 -37 26 -98 35 -138 20z"/>
<path d="M2120 1033 c-162 -27 -205 -35 -242 -47 -24 -8 -124 -40 -223 -71
-99 -32 -182 -59 -184 -61 -12 -11 9 -13 40 -4 19 6 47 13 63 16 16 3 61 14
100 25 438 125 549 131 975 58 122 -21 246 -45 277 -54 11 -3 0 4 -24 15 -50
23 -291 83 -402 100 -41 6 -86 14 -100 16 -36 7 -250 12 -280 7z"/>
</g>
</svg>
